<svg width="685" height="685" viewBox="0 0 685 685" fill="none" xmlns="http://www.w3.org/2000/svg" xmlns:xlink="http://www.w3.org/1999/xlink">
<g filter="url(#filter0_d_140_1009)">
<g clip-path="url(#clip0_140_1009)">
<rect x="24.5" y="24.5" width="636" height="636" rx="318" fill="white"/>
<g filter="url(#filter1_f_140_1009)">
<circle cx="395.5" cy="628.7" r="307.4" fill="#80ADFB"/>
</g>
<g filter="url(#filter2_f_140_1009)">
<circle cx="347.8" cy="347.8" r="164.3" fill="#47B4EB"/>
</g>
<g filter="url(#filter3_f_140_1009)">
<ellipse cx="66.9038" cy="422" rx="127.2" ry="238.5" transform="rotate(-22.8248 66.9038 422)" fill="#C8D2F7"/>
</g>
<g filter="url(#filter4_f_140_1009)">
<ellipse cx="649.372" cy="293.917" rx="184.126" ry="238.5" transform="rotate(-22.8248 649.372 293.917)" fill="#A8CFFF"/>
</g>
<g style="mix-blend-mode:multiply" filter="url(#filter5_f_140_1009)">
<ellipse cx="173.07" cy="140.436" rx="235.533" ry="184.061" transform="rotate(-39.1231 173.07 140.436)" fill="white"/>
</g>
<g clip-path="url(#clip1_140_1009)">
<path d="M252.402 192.333C256.08 192.334 259.63 193.684 262.378 196.128C265.127 198.573 266.883 201.94 267.313 205.593L267.418 207.35V223.388L463.701 237.429C467.559 237.702 471.163 239.453 473.762 242.318C476.361 245.182 477.754 248.939 477.652 252.806L477.501 254.518L462.485 359.634C462.017 362.926 460.471 365.97 458.087 368.288C455.704 370.606 452.619 372.067 449.315 372.443L447.618 372.534H267.418V402.567H417.585C426.382 402.567 434.987 405.144 442.337 409.978C449.687 414.812 455.461 421.692 458.946 429.77C462.432 437.847 463.475 446.769 461.949 455.433C460.423 464.096 456.393 472.124 450.358 478.524C444.322 484.925 436.545 489.418 427.985 491.449C419.425 493.481 410.458 492.962 402.19 489.956C393.922 486.95 386.715 481.589 381.459 474.535C376.202 467.481 373.126 459.042 372.61 450.26L372.535 447.617L372.61 444.974C372.865 440.649 373.721 436.505 375.103 432.6H294.884C297.027 438.68 297.841 445.148 297.27 451.569C296.699 457.99 294.757 464.213 291.575 469.819C288.392 475.425 284.044 480.282 278.824 484.064C273.603 487.845 267.632 490.462 261.313 491.738C254.995 493.014 248.476 492.919 242.197 491.459C235.919 490 230.026 487.21 224.918 483.278C219.81 479.346 215.605 474.364 212.588 468.668C209.57 462.972 207.81 456.694 207.427 450.26L207.352 447.617L207.427 444.974C207.946 436.121 211.066 427.617 216.395 420.528C221.723 413.439 229.025 408.079 237.385 405.12V222.367H222.368C218.69 222.366 215.14 221.016 212.392 218.572C209.643 216.128 207.887 212.76 207.457 209.107L207.352 207.35C207.352 203.672 208.702 200.122 211.147 197.374C213.591 194.625 216.958 192.869 220.611 192.439L222.368 192.333H252.402ZM252.402 432.6C248.419 432.6 244.599 434.182 241.783 436.998C238.967 439.815 237.385 443.634 237.385 447.617C237.385 451.6 238.967 455.419 241.783 458.235C244.599 461.051 248.419 462.634 252.402 462.634C256.384 462.634 260.204 461.051 263.02 458.235C265.836 455.419 267.418 451.6 267.418 447.617C267.418 443.634 265.836 439.815 263.02 436.998C260.204 434.182 256.384 432.6 252.402 432.6ZM417.585 432.6C413.602 432.6 409.783 434.182 406.966 436.998C404.15 439.815 402.568 443.634 402.568 447.617C402.568 451.6 404.15 455.419 406.966 458.235C409.783 461.051 413.602 462.634 417.585 462.634C421.568 462.634 425.387 461.051 428.203 458.235C431.019 455.419 432.602 451.6 432.602 447.617C432.602 443.634 431.019 439.815 428.203 436.998C425.387 434.182 421.568 432.6 417.585 432.6Z" fill="url(#paint0_linear_140_1009)"/>
</g>
</g>
<rect x="27" y="27" width="631" height="631" rx="315.5" stroke="white" stroke-opacity="0.4" stroke-width="5"/>
</g>
<g filter="url(#filter6_d_140_1009)">
<g clip-path="url(#clip2_140_1009)">
<rect x="76.5" y="76.5" width="532" height="532" rx="266" fill="white"/>
<g filter="url(#filter7_f_140_1009)">
<circle cx="506.533" cy="497.667" r="199.5" fill="#F2EE6E"/>
</g>
<g filter="url(#filter8_f_140_1009)">
<circle cx="346.933" cy="346.933" r="137.433" fill="#EBAE46"/>
</g>
<g filter="url(#filter9_f_140_1009)">
<ellipse cx="111.969" cy="409" rx="106.4" ry="199.5" transform="rotate(-22.8248 111.969 409)" fill="#FFFCA9"/>
</g>
<g filter="url(#filter10_f_140_1009)">
<ellipse cx="599.192" cy="301.862" rx="154.017" ry="199.5" transform="rotate(-22.8248 599.192 301.862)" fill="#FFF5A7"/>
</g>
<g style="mix-blend-mode:multiply" filter="url(#filter11_f_140_1009)">
<ellipse cx="200.775" cy="173.478" rx="197.018" ry="153.963" transform="rotate(-39.1231 200.775 173.478)" fill="white"/>
</g>
<g clip-path="url(#clip3_140_1009)">
<path d="M355.065 216.889L355.291 216.901L355.492 216.914L356.535 216.977L356.673 217.002H356.811L357.288 217.115L357.941 217.216L358.142 217.291L358.28 217.303L358.645 217.442L359.298 217.617L359.537 217.731L359.725 217.781L360.077 217.957L360.579 218.17L360.843 218.321L361.119 218.446L361.408 218.635L361.798 218.848L362.225 219.15L362.451 219.288L362.614 219.439L362.916 219.652L363.393 220.079L363.669 220.293L363.77 220.419L363.946 220.569L364.398 221.084L364.724 221.423L364.8 221.537C366.307 223.383 367.262 225.581 367.538 227.98L367.551 228.131L367.576 228.646L367.626 229.45V304.817H430.432C432.633 304.816 434.796 305.394 436.704 306.493C438.611 307.592 440.197 309.173 441.301 311.077C442.406 312.982 442.99 315.143 442.996 317.344C443.002 319.546 442.429 321.71 441.335 323.621L440.581 324.764L340.092 462.936C332.957 472.771 317.382 467.709 317.382 455.55V380.183H254.576C252.374 380.184 250.211 379.606 248.304 378.507C246.396 377.408 244.811 375.827 243.706 373.923C242.602 372.018 242.018 369.857 242.012 367.656C242.006 365.454 242.579 363.29 243.673 361.379L244.427 360.236L344.915 222.064L345.041 221.901L345.267 221.599L345.682 221.122L345.908 220.846L346.021 220.745L346.184 220.569L346.687 220.117L347.038 219.791L347.139 219.715C348.611 218.51 350.338 217.656 352.188 217.216L352.327 217.203L352.666 217.14L353.595 216.977L353.733 216.964L354.248 216.939L355.065 216.889Z" fill="url(#paint1_linear_140_1009)"/>
</g>
</g>
<rect x="79" y="79" width="527" height="527" rx="263.5" stroke="white" stroke-opacity="0.4" stroke-width="5"/>
</g>
<g filter="url(#filter12_d_140_1009)">
<g clip-path="url(#clip4_140_1009)">
<rect x="138.5" y="138.5" width="408" height="408" rx="204" fill="white"/>
<g filter="url(#filter13_f_140_1009)">
<circle cx="468.301" cy="461.5" r="153" fill="#A9EBA9"/>
</g>
<g filter="url(#filter14_f_140_1009)">
<circle cx="352.701" cy="325.5" r="105.4" fill="#E9EBA9"/>
</g>
<g filter="url(#filter15_f_140_1009)">
<ellipse cx="165.702" cy="393.5" rx="81.6" ry="153" transform="rotate(-22.8248 165.702 393.5)" fill="#A9EBA9"/>
</g>
<g filter="url(#filter16_f_140_1009)">
<ellipse cx="539.361" cy="311.334" rx="118.119" ry="153" transform="rotate(-22.8248 539.361 311.334)" fill="#B5FFA9"/>
</g>
<g style="mix-blend-mode:multiply" filter="url(#filter17_f_140_1009)">
<ellipse cx="233.809" cy="212.874" rx="151.097" ry="118.077" transform="rotate(-39.1231 233.809 212.874)" fill="white"/>
</g>
</g>
<rect x="141" y="141" width="403" height="403" rx="201.5" stroke="white" stroke-opacity="0.4" stroke-width="5"/>
</g>
<mask id="mask0_140_1009" style="mask-type:alpha" maskUnits="userSpaceOnUse" x="199" y="199" width="287" height="286">
<circle cx="342.5" cy="342" r="142.759" fill="#0066FF" stroke="#0066FF" stroke-width="0.48137"/>
</mask>
<g mask="url(#mask0_140_1009)">
<circle cx="342.5" cy="342" r="142.759" fill="#0066FF" stroke="#0066FF" stroke-width="0.48137"/>
<rect x="199.5" y="191" width="286" height="486" rx="20" fill="url(#pattern0_140_1009)"/>
</g>
<defs>
<filter id="filter0_d_140_1009" x="0.5" y="0.5" width="684" height="684" filterUnits="userSpaceOnUse" color-interpolation-filters="sRGB">
<feFlood flood-opacity="0" result="BackgroundImageFix"/>
<feColorMatrix in="SourceAlpha" type="matrix" values="0 0 0 0 0 0 0 0 0 0 0 0 0 0 0 0 0 0 127 0" result="hardAlpha"/>
<feOffset/>
<feGaussianBlur stdDeviation="12"/>
<feComposite in2="hardAlpha" operator="out"/>
<feColorMatrix type="matrix" values="0 0 0 0 0 0 0 0 0 0 0 0 0 0 0 0 0 0 0.1 0"/>
<feBlend mode="normal" in2="BackgroundImageFix" result="effect1_dropShadow_140_1009"/>
<feBlend mode="normal" in="SourceGraphic" in2="effect1_dropShadow_140_1009" result="shape"/>
</filter>
<filter id="filter1_f_140_1009" x="-219.3" y="13.9" width="1229.6" height="1229.6" filterUnits="userSpaceOnUse" color-interpolation-filters="sRGB">
<feFlood flood-opacity="0" result="BackgroundImageFix"/>
<feBlend mode="normal" in="SourceGraphic" in2="BackgroundImageFix" result="shape"/>
<feGaussianBlur stdDeviation="153.7" result="effect1_foregroundBlur_140_1009"/>
</filter>
<filter id="filter2_f_140_1009" x="-123.9" y="-123.9" width="943.4" height="943.4" filterUnits="userSpaceOnUse" color-interpolation-filters="sRGB">
<feFlood flood-opacity="0" result="BackgroundImageFix"/>
<feBlend mode="normal" in="SourceGraphic" in2="BackgroundImageFix" result="shape"/>
<feGaussianBlur stdDeviation="153.7" result="effect1_foregroundBlur_140_1009"/>
</filter>
<filter id="filter3_f_140_1009" x="-389.849" y="-110.743" width="913.507" height="1065.49" filterUnits="userSpaceOnUse" color-interpolation-filters="sRGB">
<feFlood flood-opacity="0" result="BackgroundImageFix"/>
<feBlend mode="normal" in="SourceGraphic" in2="BackgroundImageFix" result="shape"/>
<feGaussianBlur stdDeviation="153.7" result="effect1_foregroundBlur_140_1009"/>
</filter>
<filter id="filter4_f_140_1009" x="148.647" y="-244.682" width="1001.45" height="1077.2" filterUnits="userSpaceOnUse" color-interpolation-filters="sRGB">
<feFlood flood-opacity="0" result="BackgroundImageFix"/>
<feBlend mode="normal" in="SourceGraphic" in2="BackgroundImageFix" result="shape"/>
<feGaussianBlur stdDeviation="153.7" result="effect1_foregroundBlur_140_1009"/>
</filter>
<filter id="filter5_f_140_1009" x="-350.869" y="-373.065" width="1047.88" height="1027" filterUnits="userSpaceOnUse" color-interpolation-filters="sRGB">
<feFlood flood-opacity="0" result="BackgroundImageFix"/>
<feBlend mode="normal" in="SourceGraphic" in2="BackgroundImageFix" result="shape"/>
<feGaussianBlur stdDeviation="153.7" result="effect1_foregroundBlur_140_1009"/>
</filter>
<filter id="filter6_d_140_1009" x="52.5" y="52.5" width="580" height="580" filterUnits="userSpaceOnUse" color-interpolation-filters="sRGB">
<feFlood flood-opacity="0" result="BackgroundImageFix"/>
<feColorMatrix in="SourceAlpha" type="matrix" values="0 0 0 0 0 0 0 0 0 0 0 0 0 0 0 0 0 0 127 0" result="hardAlpha"/>
<feOffset/>
<feGaussianBlur stdDeviation="12"/>
<feComposite in2="hardAlpha" operator="out"/>
<feColorMatrix type="matrix" values="0 0 0 0 0 0 0 0 0 0 0 0 0 0 0 0 0 0 0.1 0"/>
<feBlend mode="normal" in2="BackgroundImageFix" result="effect1_dropShadow_140_1009"/>
<feBlend mode="normal" in="SourceGraphic" in2="effect1_dropShadow_140_1009" result="shape"/>
</filter>
<filter id="filter7_f_140_1009" x="49.8999" y="41.0334" width="913.267" height="913.267" filterUnits="userSpaceOnUse" color-interpolation-filters="sRGB">
<feFlood flood-opacity="0" result="BackgroundImageFix"/>
<feBlend mode="normal" in="SourceGraphic" in2="BackgroundImageFix" result="shape"/>
<feGaussianBlur stdDeviation="128.567" result="effect1_foregroundBlur_140_1009"/>
</filter>
<filter id="filter8_f_140_1009" x="-47.6333" y="-47.6333" width="789.134" height="789.133" filterUnits="userSpaceOnUse" color-interpolation-filters="sRGB">
<feFlood flood-opacity="0" result="BackgroundImageFix"/>
<feBlend mode="normal" in="SourceGraphic" in2="BackgroundImageFix" result="shape"/>
<feGaussianBlur stdDeviation="128.567" result="effect1_foregroundBlur_140_1009"/>
</filter>
<filter id="filter9_f_140_1009" x="-270.094" y="-36.6277" width="764.128" height="891.255" filterUnits="userSpaceOnUse" color-interpolation-filters="sRGB">
<feFlood flood-opacity="0" result="BackgroundImageFix"/>
<feBlend mode="normal" in="SourceGraphic" in2="BackgroundImageFix" result="shape"/>
<feGaussianBlur stdDeviation="128.567" result="effect1_foregroundBlur_140_1009"/>
</filter>
<filter id="filter10_f_140_1009" x="180.347" y="-148.665" width="837.69" height="901.053" filterUnits="userSpaceOnUse" color-interpolation-filters="sRGB">
<feFlood flood-opacity="0" result="BackgroundImageFix"/>
<feBlend mode="normal" in="SourceGraphic" in2="BackgroundImageFix" result="shape"/>
<feGaussianBlur stdDeviation="128.567" result="effect1_foregroundBlur_140_1009"/>
</filter>
<filter id="filter11_f_140_1009" x="-237.487" y="-256.054" width="876.524" height="859.064" filterUnits="userSpaceOnUse" color-interpolation-filters="sRGB">
<feFlood flood-opacity="0" result="BackgroundImageFix"/>
<feBlend mode="normal" in="SourceGraphic" in2="BackgroundImageFix" result="shape"/>
<feGaussianBlur stdDeviation="128.567" result="effect1_foregroundBlur_140_1009"/>
</filter>
<filter id="filter12_d_140_1009" x="114.5" y="114.5" width="456" height="456" filterUnits="userSpaceOnUse" color-interpolation-filters="sRGB">
<feFlood flood-opacity="0" result="BackgroundImageFix"/>
<feColorMatrix in="SourceAlpha" type="matrix" values="0 0 0 0 0 0 0 0 0 0 0 0 0 0 0 0 0 0 127 0" result="hardAlpha"/>
<feOffset/>
<feGaussianBlur stdDeviation="12"/>
<feComposite in2="hardAlpha" operator="out"/>
<feColorMatrix type="matrix" values="0 0 0 0 0 0 0 0 0 0 0 0 0 0 0 0 0 0 0.1 0"/>
<feBlend mode="normal" in2="BackgroundImageFix" result="effect1_dropShadow_140_1009"/>
<feBlend mode="normal" in="SourceGraphic" in2="effect1_dropShadow_140_1009" result="shape"/>
</filter>
<filter id="filter13_f_140_1009" x="118.101" y="111.3" width="700.4" height="700.4" filterUnits="userSpaceOnUse" color-interpolation-filters="sRGB">
<feFlood flood-opacity="0" result="BackgroundImageFix"/>
<feBlend mode="normal" in="SourceGraphic" in2="BackgroundImageFix" result="shape"/>
<feGaussianBlur stdDeviation="98.6" result="effect1_foregroundBlur_140_1009"/>
</filter>
<filter id="filter14_f_140_1009" x="50.1008" y="22.9001" width="605.201" height="605.2" filterUnits="userSpaceOnUse" color-interpolation-filters="sRGB">
<feFlood flood-opacity="0" result="BackgroundImageFix"/>
<feBlend mode="normal" in="SourceGraphic" in2="BackgroundImageFix" result="shape"/>
<feGaussianBlur stdDeviation="98.6" result="effect1_foregroundBlur_140_1009"/>
</filter>
<filter id="filter15_f_140_1009" x="-127.309" y="51.7402" width="586.023" height="683.519" filterUnits="userSpaceOnUse" color-interpolation-filters="sRGB">
<feFlood flood-opacity="0" result="BackgroundImageFix"/>
<feBlend mode="normal" in="SourceGraphic" in2="BackgroundImageFix" result="shape"/>
<feGaussianBlur stdDeviation="98.6" result="effect1_foregroundBlur_140_1009"/>
</filter>
<filter id="filter16_f_140_1009" x="218.142" y="-34.1829" width="642.439" height="691.033" filterUnits="userSpaceOnUse" color-interpolation-filters="sRGB">
<feFlood flood-opacity="0" result="BackgroundImageFix"/>
<feBlend mode="normal" in="SourceGraphic" in2="BackgroundImageFix" result="shape"/>
<feGaussianBlur stdDeviation="98.6" result="effect1_foregroundBlur_140_1009"/>
</filter>
<filter id="filter17_f_140_1009" x="-102.302" y="-116.542" width="672.222" height="658.831" filterUnits="userSpaceOnUse" color-interpolation-filters="sRGB">
<feFlood flood-opacity="0" result="BackgroundImageFix"/>
<feBlend mode="normal" in="SourceGraphic" in2="BackgroundImageFix" result="shape"/>
<feGaussianBlur stdDeviation="98.6" result="effect1_foregroundBlur_140_1009"/>
</filter>
<pattern id="pattern0_140_1009" patternContentUnits="objectBoundingBox" width="1" height="1">
<use xlink:href="#image0_140_1009" transform="matrix(0.00127479 0 0 0.000750188 -0.774794 0)"/>
</pattern>
<linearGradient id="paint0_linear_140_1009" x1="342.504" y1="167.1" x2="342.504" y2="654.955" gradientUnits="userSpaceOnUse">
<stop stop-color="#0188FF"/>
<stop offset="1" stop-color="#000C3D"/>
</linearGradient>
<linearGradient id="paint1_linear_140_1009" x1="342.504" y1="195.78" x2="342.504" y2="603.892" gradientUnits="userSpaceOnUse">
<stop stop-color="#FFA201"/>
<stop offset="1" stop-color="#3D1200"/>
</linearGradient>
<clipPath id="clip0_140_1009">
<rect x="24.5" y="24.5" width="636" height="636" rx="318" fill="white"/>
</clipPath>
<clipPath id="clip1_140_1009">
<rect width="360.4" height="360.4" fill="white" transform="translate(162.301 162.3)"/>
</clipPath>
<clipPath id="clip2_140_1009">
<rect x="76.5" y="76.5" width="532" height="532" rx="266" fill="white"/>
</clipPath>
<clipPath id="clip3_140_1009">
<rect width="301.467" height="301.467" fill="white" transform="translate(191.768 191.767)"/>
</clipPath>
<clipPath id="clip4_140_1009">
<rect x="138.5" y="138.5" width="408" height="408" rx="204" fill="white"/>
</clipPath></defs>
</svg>
