<svg width="17" height="17" viewBox="0 0 17 17" fill="none" xmlns="http://www.w3.org/2000/svg">
<path d="M0.000952653 5.31319C0.339621 5.25508 0.678289 5.19878 1.01481 5.13522C1.78861 4.99176 2.55597 4.8265 3.27188 4.52504C4.07997 4.18364 4.62441 3.64247 4.96737 2.94512C5.32747 2.21146 5.51395 1.43784 5.694 0.664226C5.70901 0.59885 5.72401 0.53529 5.73902 0.469914C5.74116 0.46265 5.75188 0.457202 5.77331 0.433594C5.83119 0.682386 5.88477 0.918466 5.94479 1.15273C6.09912 1.76654 6.27488 2.3749 6.55997 2.95602C6.94793 3.74961 7.60598 4.31076 8.54267 4.64309C9.41721 4.95362 10.341 5.11161 11.2649 5.26779C11.3485 5.28232 11.4342 5.29685 11.5157 5.33498C11.1448 5.40036 10.774 5.4621 10.4053 5.53111C9.66156 5.67276 8.9285 5.83438 8.24044 6.12676C7.44307 6.46453 6.90292 6.99844 6.56211 7.6867C6.187 8.44034 6.00052 9.23575 5.81833 10.0312C5.80546 10.0911 5.79046 10.1492 5.74759 10.2128C5.70901 10.0475 5.67257 9.88225 5.63184 9.71699C5.4668 9.03781 5.28675 8.36407 4.97594 7.71758C4.58154 6.89856 3.90635 6.32289 2.9375 5.98874C2.05868 5.68547 1.13699 5.52566 0.213156 5.3713C0.142422 5.35859 0.0716871 5.34769 0.000952653 5.33498C-0.00119082 5.32953 0.000952653 5.32227 0.000952653 5.31319Z" fill="#FF8A00"/>
<path d="M8.86206 13.2966C9.11928 13.2512 9.36578 13.2112 9.61227 13.164C10.1589 13.0605 10.699 12.9388 11.1791 12.6792C11.6829 12.4068 11.9658 11.9982 12.1308 11.5296C12.2702 11.1356 12.3645 10.7306 12.4802 10.3311C12.491 10.2911 12.5038 10.2493 12.5145 10.2148C12.6474 10.6579 12.7653 11.1029 12.9175 11.5387C13.0911 12.0308 13.3891 12.4667 13.9421 12.7137C14.2872 12.868 14.6623 12.9788 15.0352 13.0787C15.3589 13.1658 15.6997 13.2076 16.0341 13.2694C16.0834 13.2784 16.1306 13.2893 16.1713 13.2984C15.6504 13.411 15.1253 13.5109 14.6108 13.6398C14.1007 13.7669 13.6484 13.9867 13.3269 14.3626C13.0568 14.6768 12.9068 15.0363 12.7953 15.4068C12.6967 15.7337 12.6174 16.0642 12.521 16.4328C12.4717 16.2331 12.4374 16.0642 12.3859 15.9007C12.2873 15.5793 12.1952 15.2542 12.0708 14.9383C11.8029 14.2554 11.2284 13.836 10.4289 13.6362C9.91879 13.5127 9.40007 13.4128 8.86206 13.2966Z" fill="#FF8A00"/>
</svg>
